<svg width="25" height="132" viewBox="0 0 25 132" fill="none" xmlns="http://www.w3.org/2000/svg">
<path d="M12.7267 0C5.94894 0 0.453906 5.42407 0.453906 12.1156C0.453906 14.4046 1.09743 16.5453 2.21501 18.3716L0 24.8716L6.79487 22.7241C8.55313 23.6837 10.5753 24.2312 12.7267 24.2312C19.5053 24.2312 25 18.8063 25 12.1156C25 5.42407 19.5053 0 12.7267 0ZM18.8295 16.7167C18.5407 17.4288 17.2349 18.0787 16.6588 18.1087C16.0832 18.139 16.0668 18.5525 12.9289 17.1963C9.79129 15.8398 7.90363 12.5415 7.7548 12.3291C7.60586 12.1175 6.5394 10.6055 6.59693 9.08386C6.65485 7.56197 7.49241 6.84397 7.79135 6.54535C8.08996 6.24628 8.43231 6.1927 8.64135 6.18932C8.88845 6.18532 9.04849 6.18199 9.23136 6.18871C9.41406 6.19559 9.68851 6.15068 9.92612 6.77935C10.1636 7.40797 10.7321 8.95301 10.8048 9.11046C10.8775 9.26807 10.9224 9.45055 10.8105 9.65291C10.6982 9.85572 10.6407 9.98241 10.4778 10.1572C10.3141 10.3319 10.1333 10.5481 9.98722 10.6818C9.82427 10.8297 9.65407 10.9911 9.82539 11.3074C9.9966 11.6234 10.5873 12.6595 11.4872 13.5134C12.6437 14.611 13.6411 14.9751 13.948 15.141C14.2557 15.3078 14.4394 15.2892 14.6302 15.0894C14.8202 14.8896 15.4472 14.2152 15.668 13.9142C15.8887 13.6123 16.0955 13.6714 16.379 13.7849C16.6624 13.8988 18.1735 14.704 18.4813 14.8703C18.7888 15.0362 18.9943 15.1217 19.0678 15.2534C19.1413 15.3855 19.1181 16.0046 18.8295 16.7167Z" fill="#25D366"/>
<path fill-rule="evenodd" clip-rule="evenodd" d="M2 113.935C2 113.156 2.30102 112.41 2.83684 111.86C3.37266 111.309 4.09938 111 4.85714 111H6.16381C6.98286 111 7.69714 111.573 7.89619 112.389L8.94857 116.716C9.03385 117.066 9.01663 117.434 8.89905 117.775C8.78148 118.115 8.56879 118.412 8.28762 118.628L7.05619 119.577C6.92762 119.676 6.9 119.821 6.93619 119.922C7.47369 121.423 8.32247 122.787 9.42376 123.918C10.525 125.049 11.8525 125.921 13.3143 126.473C13.4124 126.51 13.5524 126.482 13.6495 126.35L14.5733 125.085C14.7842 124.796 15.0733 124.578 15.4045 124.457C15.7358 124.336 16.0943 124.318 16.4352 124.406L20.6476 125.487C21.4419 125.691 22 126.425 22 127.267V128.609C22 129.387 21.699 130.133 21.1632 130.684C20.6273 131.234 19.9006 131.543 19.1429 131.543H17C8.71619 131.543 2 124.645 2 116.136V113.935Z" fill="black"/>
</svg>
